# xmcd
#
# Track frame offsets: 
#        150
#        9901
#        19796
#        31674
#        60349
#        62561
#        66046
#        81953
#        91507
#        108019
#        118421
#        128728
#        137150
#        151804
#        166341
#        181450
#        197670
#        204934
#        220372
#        235829
#        247532
#        259939
#        263328
#        265447
#        268157
#        271429
#        289782
#        293366
#        315159
#        317306
#        329809
#
# Disc length: 4670 seconds
#
# Revision: 0
# Processed by: cddbd v1.5.2PL0 Copyright (c) Steve Scherf et al.
# Submitted via: ExactAudioCopy v0.99pb5
#
DISCID=a3123c1f
DTITLE=The Beatles  - Contemporary Sound - Complete Revisionist Remixe
DTITLE=s D 6
DYEAR=1900
DGENRE=
TTITLE0=All Together Now (ysrmm)
TTITLE1=All Together Now (yss dledin)
TTITLE2=It_s All Too Much (ysrmm)
TTITLE3=It_s All Too Much (yss dledin)
TTITLE4=The Inner Light (LOVE)
TTITLE5=Across the Universe (imagine laser)
TTITLE6=Across the Universe (ant 2)
TTITLE7=Across the Universe (ant dvd)
TTITLE8=Across the Universe (libn)
TTITLE9=Lady Madonna (ant laser)
TTITLE10=Lady Madonna (ant dvd)
TTITLE11=Lady Madonna (LOVE)
TTITLE12=Hey Bulldog (ysrmm)
TTITLE13=Hey Bulldog (yss dledin)
TTITLE14=Hey Bulldog (rockband)
TTITLE15=Hey Jude (LOVE)
TTITLE16=Revolution (imagine laser)
TTITLE17=Revolution (rockband)
TTITLE18=Revolution (LOVE)
TTITLE19=Back in the USSR (LOVE)
TTITLE20=Back in the USSR (rockband)
TTITLE21=Happiness is a Warm Gun (ant dvd)
TTITLE22=Everybody_s Got Something To Hide (ant dvd)
TTITLE23=I Will (ant dvd)
TTITLE24=Dear Prudence (ant dvd)
TTITLE25=Dear Prudence (rockband)
TTITLE26=Glass Onion (LOVE)
TTITLE27=While My Guitar Gently Weeps (rockband)
TTITLE28=Blackbird (LOVE)
TTITLE29=Birthday (rockband)
TTITLE30=Helter Skelter (rockband)
EXTD=
EXTT0=
EXTT1=
EXTT2=
EXTT3=
EXTT4=
EXTT5=
EXTT6=
EXTT7=
EXTT8=
EXTT9=
EXTT10=
EXTT11=
EXTT12=
EXTT13=
EXTT14=
EXTT15=
EXTT16=
EXTT17=
EXTT18=
EXTT19=
EXTT20=
EXTT21=
EXTT22=
EXTT23=
EXTT24=
EXTT25=
EXTT26=
EXTT27=
EXTT28=
EXTT29=
EXTT30=
PLAYORDER=
